{"title":"De Hele Teringzooi Van De Tegenpartij","uid":5863710,"size":2494441390,"categoryP":"video","categoryS":"tv_shows","magnet":"?xt=urn:btih:5285bc66d40e7e6f8da927359883e4d40a7d61d7&amp;dn=De+Hele+Teringzooi+Van+De+Tegenpartij&amp;tr=udp%3A%2F%2Ftracker.openbittorrent.com%3A80&amp;tr=udp%3A%2F%2Fopen.demonii.com%3A1337&amp;tr=udp%3A%2F%2Ftracker.coppersurfer.tk%3A6969&amp;tr=udp%3A%2F%2Fexodus.desync.com%3A6969","seeders":0,"leechers":2,"uploader":"Filmofiel","files":1,"time":1286063599,"description":"De Tegenpartij ~De Hele Teringzooi~\n\nWe kennen ze nog wel: F. Jacobse en Tedje Van Es, de twee hoofdfiguren vertolkt door Kees Van Kooten en Wim De Bie. Het duo welke begin jaren tachtig zich op ludieke wijze vestigde tegen de toenmalige politieke orde van Nederland. Met leuzen als &quot;Geen gezeik iedereen rijk&quot;, &quot;Samen Voor Ons Eigen&quot; en &quot;Mag Ik Eve Overgeve&quot; maakten zij serieuze campagne voor hun rechtse partij 'De Tegenpartij'. We volgen dit duo tot en met hun tragisch einde. Deze rip bevat ook nog niet eerder uitgezonden beelden, 2,5 uur teringzooi om van te smullen.\n\nFormat                           : AVI\nFormat/Info                      : Audio Video Interleave\nFormat profile                   : OpenDML\nFile size                        : 2.32 GiB\nDuration                         : 25mn 58s\nOverall bit rate                 : 12.8 Mbps\nMovie name                       : DE_TEGENPARTIJ.Title1.DVDRip\nWriting application              : Lavf52.33.0\nOriginal source form/Name        : DE_TEGENPARTIJ\n\nVideo\nID                               : 0\nFormat                           : xvid\nCodec ID                         : xvid\nDuration                         : 25mn 58s\nBit rate                         : 1 987 Kbps\nWidth                            : 720 pixels\nHeight                           : 552 pixels\nDisplay aspect ratio             : 4:3\nFrame rate                       : 25.000 fps\nBits/(Pixel*Frame)               : 0.200\nStream size                      : 369 MiB (16%)\n\nAudio\nID                               : 1\nFormat                           : AC-3\nFormat/Info                      : Audio Coding 3\nMode extension                   : CM (complete main)\nCodec ID                         : 2000\nDuration                         : 20mn 34s\nBit rate mode                    : Constant\nBit rate                         : 192 Kbps\nChannel(s)                       : 2 channels\nChannel positions                : Front: L R\nSampling rate                    : 48.0 KHz\nBit depth                        : 16 bits\nStream size                      : 28.3 MiB (1%)\nAlignment                        : Aligned on interleaves\nInterleave, duration             : 40 ms (1.01 video frame)\n\nVeel plezier.\n\n\nN.B. Deze rip is niet ondertiteld dus minder geschikt van doven en slechthorenden.\n","torrent":{"xt":"urn:btih:5285bc66d40e7e6f8da927359883e4d40a7d61d7","amp;dn":"De+Hele+Teringzooi+Van+De+Tegenpartij","amp;tr":["udp%3A%2F%2Ftracker.openbittorrent.com%3A80","udp%3A%2F%2Fopen.demonii.com%3A1337","udp%3A%2F%2Ftracker.coppersurfer.tk%3A6969","udp%3A%2F%2Fexodus.desync.com%3A6969"],"infoHash":"5285bc66d40e7e6f8da927359883e4d40a7d61d7","infoHashBuffer":{"type":"Buffer","data":[82,133,188,102,212,14,126,111,141,169,39,53,152,131,228,212,10,125,97,215]},"announce":[],"urlList":[]}}